<svg width="144" height="144" viewBox="0 0 144 144" fill="none" xmlns="http://www.w3.org/2000/svg">
<path d="M81 125.998H63C61.3425 125.998 60 124.656 60 122.998C60 121.341 61.3425 119.998 63 119.998H81C82.6575 119.998 84 121.341 84 122.998C84 124.656 82.6575 125.998 81 125.998ZM81.345 26.9984H62.655C62.625 26.9984 62.595 26.9984 62.565 26.9984C59.49 26.9084 56.6325 25.1984 55.095 22.5434L49.5225 13.5884C49.5 13.5584 49.485 13.5209 49.4625 13.4909C48.96 12.6134 48.03 12.0509 47.025 12.0059H45C43.3425 12.0059 42 10.6634 42 9.00586C42 7.34836 43.3425 6.00586 45 6.00586H47.0775C47.1075 6.00586 47.1375 6.00586 47.1675 6.00586C50.2425 6.10336 53.0925 7.80586 54.6375 10.4609L60.21 19.4159C60.2325 19.4459 60.2475 19.4834 60.27 19.5134C60.7725 20.3909 61.7025 20.9534 62.7075 20.9984H81.2925C82.2975 20.9534 83.2275 20.3909 83.73 19.5134C83.7525 19.4834 83.7675 19.4459 83.79 19.4159L89.3625 10.4609C90.9075 7.80586 93.7575 6.09586 96.8325 6.00586C96.8625 6.00586 96.8925 6.00586 96.9225 6.00586H99C100.658 6.00586 102 7.34836 102 9.00586C102 10.6634 100.658 12.0059 99 12.0059H96.975C95.97 12.0509 95.04 12.6209 94.5375 13.4909C94.5225 13.5209 94.5 13.5584 94.4775 13.5884L88.905 22.5434C87.3675 25.1984 84.51 26.9084 81.435 26.9984C81.405 26.9984 81.375 26.9984 81.345 26.9984Z" fill="#8EB927"/>
<path d="M92.4216 86.6715C84.8316 86.6715 77.2116 82.4115 69.7566 73.9965C63.9741 67.464 57.9441 64.209 51.8766 64.3665C42.3441 64.5765 35.4066 73.044 35.3391 73.1265C34.3041 74.4165 32.4141 74.619 31.1241 73.584C29.8341 72.549 29.6241 70.6665 30.6516 69.3765C30.9966 68.9415 39.3366 58.674 51.6741 58.359C59.6241 58.1565 67.2141 62.079 74.2416 70.014C80.9616 77.604 87.5091 81.174 93.7041 80.6115C102.652 79.809 108.374 70.5465 108.427 70.449C109.282 69.039 111.127 68.5815 112.544 69.4365C113.962 70.2915 114.419 72.129 113.572 73.5465C113.279 74.034 106.282 85.479 94.2966 86.5815C93.6666 86.6415 93.0441 86.6715 92.4216 86.6715Z" fill="#8EB927"/>
<path d="M102 138H42C35.385 138 30 132.615 30 126V18C30 11.385 35.385 6 42 6H102C108.615 6 114 11.385 114 18V126C114 132.615 108.615 138 102 138ZM42 12C38.6925 12 36 14.6925 36 18V126C36 129.307 38.6925 132 42 132H102C105.307 132 108 129.307 108 126V18C108 14.6925 105.307 12 102 12H42Z" fill="#26BECF"/>
</svg>
