<svg width="144" height="144" viewBox="0 0 144 144" fill="none" xmlns="http://www.w3.org/2000/svg">
<g clip-path="url(#clip0_483_6588)">
<path d="M80.3265 93.0039H76.2015C74.9265 93.0039 73.8015 92.1789 73.3515 91.0539L72.0765 87.5289C71.6265 86.3289 70.5015 85.5789 69.2265 85.5789H57.4515C56.1765 85.5789 55.0515 86.4039 54.6015 87.5289L53.3265 91.0539C52.8765 92.2539 51.7515 93.0039 50.4765 93.0039H46.3515C44.2515 93.0039 42.8265 90.9039 43.5765 88.9539L57.4515 52.9539C57.9015 51.8289 59.0265 51.0039 60.2265 51.0039H66.3015C67.5765 51.0039 68.6265 51.7539 69.0765 52.9539L82.9515 88.9539C83.7015 90.9039 82.2765 93.0039 80.1765 93.0039H80.3265ZM62.7015 65.1789L58.6515 76.3539C58.5015 76.8789 58.8015 77.3289 59.3265 77.3289H67.4265C67.9515 77.3289 68.3265 76.8039 68.1015 76.3539L64.0515 65.1789C63.8265 64.5039 62.8515 64.5039 62.6265 65.1789H62.7015Z" fill="#8EB927"/>
<path d="M94.4475 93.0039H90.8025C89.1675 93.0039 87.75 91.6539 87.75 90.0039V54.0039C87.75 52.3539 89.0925 51.0039 90.8025 51.0039H94.4475C96.0825 51.0039 97.5 52.3539 97.5 54.0039V90.0039C97.5 91.6539 96.1575 93.0039 94.4475 93.0039Z" fill="#8EB927"/>
<path d="M51.6245 111.749C47.8595 114.127 43.4045 115.499 38.627 115.499C25.1645 115.499 14.252 104.587 14.252 91.1243C14.252 89.1293 14.492 87.1943 14.942 85.3418" stroke="#26BECF" stroke-width="6" stroke-linecap="round" stroke-linejoin="round"/>
<path d="M33.767 78C24.992 74.6775 18.752 66.195 18.752 56.25C18.752 43.41 29.162 33 42.002 33" stroke="#26BECF" stroke-width="6" stroke-linecap="round" stroke-linejoin="round"/>
<path d="M71.9996 115.496C71.9996 124.609 64.6121 131.996 55.4996 131.996C46.3871 131.996 39.4121 125.014 39.0146 116.246" stroke="#26BECF" stroke-width="6" stroke-linecap="round" stroke-linejoin="round"/>
<path d="M43.502 16.92C46.5245 14.3175 50.4545 12.75 54.752 12.75C64.277 12.75 72.002 20.475 72.002 30V39" stroke="#26BECF" stroke-width="6" stroke-linecap="round" stroke-linejoin="round"/>
<path d="M92.377 111.746C96.142 114.124 100.597 115.496 105.374 115.496C118.837 115.496 129.749 104.584 129.749 91.1211" stroke="#26BECF" stroke-width="6" stroke-linecap="round" stroke-linejoin="round"/>
<path d="M120.002 70.965C123.279 66.96 125.252 61.83 125.252 56.25C125.252 43.41 114.842 33 102.002 33C99.6545 33 97.3895 33.345 95.252 33.9975" stroke="#26BECF" stroke-width="6" stroke-linecap="round" stroke-linejoin="round"/>
<path d="M81 130.2C83.25 131.348 85.8 132 88.5 132C97.365 132 104.587 125.017 104.985 116.25" stroke="#26BECF" stroke-width="6" stroke-linecap="round" stroke-linejoin="round"/>
<path d="M106.237 33C106.41 32.025 106.5 31.02 106.5 30C106.5 20.475 98.775 12.75 89.25 12.75C79.725 12.75 72 20.475 72 30V39" stroke="#26BECF" stroke-width="6" stroke-linecap="round" stroke-linejoin="round"/>
<path d="M48.75 40.5039C52.0637 40.5039 54.75 37.8176 54.75 34.5039C54.75 31.1902 52.0637 28.5039 48.75 28.5039C45.4363 28.5039 42.75 31.1902 42.75 34.5039C42.75 37.8176 45.4363 40.5039 48.75 40.5039Z" stroke="#8EB927" stroke-width="6" stroke-linecap="round" stroke-linejoin="round"/>
<path d="M72.002 114C75.3157 114 78.002 111.314 78.002 108C78.002 104.686 75.3157 102 72.002 102C68.6882 102 66.002 104.686 66.002 108C66.002 111.314 68.6882 114 72.002 114Z" stroke="#8EB927" stroke-width="6" stroke-linecap="round" stroke-linejoin="round"/>
<path d="M114 81.7539C117.314 81.7539 120 79.0676 120 75.7539C120 72.4402 117.314 69.7539 114 69.7539C110.686 69.7539 108 72.4402 108 75.7539C108 79.0676 110.686 81.7539 114 81.7539Z" stroke="#8EB927" stroke-width="6" stroke-linecap="round" stroke-linejoin="round"/>
</g>
<defs>
<clipPath id="clip0_483_6588">
<rect width="144" height="144" fill="white"/>
</clipPath>
</defs>
</svg>
