<svg width="144" height="144" viewBox="0 0 144 144" fill="none" xmlns="http://www.w3.org/2000/svg">
<path d="M18.6875 54.2344H125.3" stroke="#26BECF" stroke-width="6" stroke-linecap="round" stroke-linejoin="round"/>
<path d="M27.575 30.543H116.42C121.325 30.543 125.308 34.518 125.308 39.4305V116.433C125.308 121.338 121.332 125.32 116.42 125.32H27.575C22.67 125.32 18.6875 121.345 18.6875 116.433V39.423C18.6875 34.518 22.67 30.543 27.575 30.543Z" stroke="#26BECF" stroke-width="6" stroke-linecap="round" stroke-linejoin="round"/>
<path d="M39.418 42.3839V18.6914M104.578 42.3839V18.6914" stroke="#26BECF" stroke-width="6" stroke-linecap="round" stroke-linejoin="round"/>
<path d="M73.223 114.426C86.8879 114.426 97.9655 103.349 97.9655 89.6839C97.9655 76.019 86.8879 64.9414 73.223 64.9414C59.5581 64.9414 48.4805 76.019 48.4805 89.6839C48.4805 103.349 59.5581 114.426 73.223 114.426Z" stroke="#8EB927" stroke-width="6" stroke-linecap="round" stroke-linejoin="round"/>
<path d="M83.6781 82.9043L69.9456 98.6993L62.6406 90.2918" stroke="#8EB927" stroke-width="6" stroke-linecap="round" stroke-linejoin="round"/>
</svg>
