<svg width="666" height="288" viewBox="0 0 666 288" fill="none" xmlns="http://www.w3.org/2000/svg">
<g clip-path="url(#clip0_423_2999)">
<path d="M93.5362 -0.904297C128.405 -0.904242 158.794 18.0579 174.88 46.1729C175.382 47.0509 175.647 48.0451 175.647 49.0566V135.322C175.647 136.336 175.381 137.333 174.876 138.212C158.075 167.492 125.743 186.868 89.0304 185.151L88.1622 185.107C40.388 182.44 1.90639 143.46 0.0713707 95.8535L0.0313317 94.6113C-1.31837 42.0769 41.1132 -0.904297 93.5362 -0.904297ZM93.5362 10.709C47.5663 10.709 10.4609 48.3818 11.6407 94.3174L11.6759 95.4043V95.4053C13.2782 136.983 46.9727 171.176 88.8097 173.512H88.8087C120.762 175.292 148.989 158.864 164.033 133.743V50.6318C149.757 26.7262 123.55 10.709 93.5362 10.709ZM96.2452 75.3516C104.956 75.3516 112.018 82.8842 112.018 92.1758C112.018 101.467 104.956 108.999 96.2452 108.999C87.5344 108.999 80.4729 101.467 80.4727 92.1758C80.4727 82.8842 87.5343 75.3516 96.2452 75.3516Z" fill="#D9D9D9"/>
<path d="M93.5362 -0.904297C128.405 -0.904242 158.794 18.0579 174.88 46.1729C175.382 47.0509 175.647 48.0451 175.647 49.0566V135.322C175.647 136.336 175.381 137.333 174.876 138.212C158.075 167.492 125.743 186.868 89.0304 185.151L88.1622 185.107C40.388 182.44 1.90639 143.46 0.0713707 95.8535L0.0313317 94.6113C-1.31837 42.0769 41.1132 -0.904297 93.5362 -0.904297ZM93.5362 10.709C47.5663 10.709 10.4609 48.3818 11.6407 94.3174L11.6759 95.4043V95.4053C13.2782 136.983 46.9727 171.176 88.8097 173.512H88.8087C120.762 175.292 148.989 158.864 164.033 133.743V50.6318C149.757 26.7262 123.55 10.709 93.5362 10.709ZM96.2452 75.3516C104.956 75.3516 112.018 82.8842 112.018 92.1758C112.018 101.467 104.956 108.999 96.2452 108.999C87.5344 108.999 80.4729 101.467 80.4727 92.1758C80.4727 82.8842 87.5343 75.3516 96.2452 75.3516Z" fill="url(#paint0_linear_423_2999)"/>
<path d="M211.255 85.4037V34.1273C211.255 26.955 211.148 22.566 210.934 20.5321C212.968 20.2109 220.568 19.6757 222.817 19.6757C224.743 19.6757 225.065 20.6391 225.065 25.5633V73.5212C225.065 81.0147 225.279 84.5473 225.386 86.6882C223.566 87.2235 216.179 87.5446 213.61 87.5446C212.005 87.5446 211.255 87.2235 211.255 85.4037ZM272.511 85.5107L272.618 58.5344C272.618 52.5397 269.514 48.6859 264.483 48.6859C260.201 48.6859 257.525 50.7198 255.277 52.5397V84.2261C255.277 86.153 255.062 86.6882 252.814 86.9023C249.068 87.4376 245.642 87.5446 241.681 87.5446C241.895 81.764 242.003 75.234 242.003 68.1688V50.6128C242.003 47.5084 241.574 45.7956 239.969 44.618V43.8687C241.146 41.4066 245.535 38.5163 248.532 38.5163C252.386 38.5163 254.099 42.6912 254.634 45.6885C259.451 41.5136 264.376 38.5163 269.835 38.5163C283.645 38.5163 285.893 50.3987 285.893 58.5344V71.4873C285.893 77.0538 286.107 82.9415 286.321 86.6882C283.859 86.9023 279.47 87.5446 274.759 87.5446C273.154 87.5446 272.511 86.9023 272.511 85.5107ZM329.351 76.7327L329.672 76.9468C330.207 79.623 329.779 83.0486 327.745 84.8684C325.176 87.1164 320.68 88.1869 315.863 88.1869C304.837 88.1869 301.304 81.2288 301.304 73.6283V48.5789C297.022 48.5789 295.095 46.5449 295.095 45.3674C296.808 42.37 305.586 34.5554 307.406 33.0568C309.226 31.5581 311.688 30.0594 315.649 29.8453C315.221 33.0568 315.006 36.6964 315.006 39.8008H330.85C329.565 47.4013 327.103 47.9366 324.962 48.0436C322.607 48.3648 318.967 48.4718 314.685 48.4718C314.257 57.1428 314.364 67.0983 314.792 71.5944C315.328 76.7327 318.218 78.6596 321.858 78.6596C325.069 78.6596 328.066 77.482 329.351 76.7327ZM375.978 75.4481L376.192 75.7693C376.192 80.6935 372.338 85.4037 370.09 86.3671C368.484 87.0094 363.881 88.1869 360.241 88.1869C344.505 88.1869 335.834 79.7301 335.834 63.7798C335.834 51.041 344.291 38.5163 358.85 38.5163C372.659 38.5163 378.011 48.4718 378.118 57.2498C378.118 58.7485 378.118 59.926 377.797 60.7824C377.476 62.3882 373.087 64.1009 368.698 65.1714C366.022 65.8137 354.782 65.9208 349.001 65.7067C349.643 74.4847 356.281 78.1243 363.453 78.1243C368.805 78.1243 374.265 76.1975 375.978 75.4481ZM357.886 46.5449C353.925 46.5449 349.643 50.1846 349.215 57.8921C353.39 58.2132 361.526 58.1062 364.095 57.8921C364.844 57.8921 365.487 56.9287 365.487 55.6441C365.594 50.7198 363.239 46.5449 357.886 46.5449ZM388.63 86.3671V27.7043C388.63 21.3884 388.416 18.6052 388.202 16.4642C390.343 15.5007 397.515 14.4303 399.87 14.4303C401.583 14.4303 402.011 14.9655 402.011 21.3884V72.7719C402.011 78.0173 402.225 83.7979 402.439 86.9023C400.084 87.4376 391.628 87.7587 390.129 87.7587C389.058 87.7587 388.63 87.4376 388.63 86.3671ZM416.881 86.3671V27.7043C416.881 21.3884 416.667 18.6052 416.453 16.4642C418.594 15.5007 425.766 14.4303 428.121 14.4303C429.834 14.4303 430.262 14.9655 430.262 21.3884V72.7719C430.262 78.0173 430.476 83.7979 430.69 86.9023C428.335 87.4376 419.878 87.7587 418.38 87.7587C417.309 87.7587 416.881 87.4376 416.881 86.3671ZM451.983 15.7149C456.158 15.7149 458.834 18.6052 458.834 22.7801C458.834 26.8479 455.944 30.1664 451.769 30.1664C448.45 30.1664 444.811 28.1325 444.811 23.1012C444.811 17.7488 449.2 15.7149 451.983 15.7149ZM458.513 45.7956V84.3332C458.513 86.2601 457.764 86.7953 455.302 87.1164C453.161 87.4376 449.2 87.5446 444.918 87.5446C445.025 83.1556 445.239 76.9468 445.239 70.6309V52.4326C445.239 45.7956 445.025 42.37 444.811 40.4431C447.273 39.6938 454.338 39.1586 456.586 39.1586C458.085 39.1586 458.513 39.6938 458.513 45.7956ZM490.824 38.5163C493.072 38.5163 496.605 38.8374 499.495 39.4797C502.6 40.122 506.025 40.9784 508.487 40.9784C511.485 40.9784 514.696 40.5502 516.302 39.9079C516.623 40.4431 516.837 41.8348 516.837 42.7982C516.837 46.4379 515.338 48.6859 511.485 49.2211C510.628 49.3282 509.237 49.4352 508.38 49.4352C509.237 51.4692 509.558 53.5031 509.558 55.2159C509.558 66.1349 500.887 71.2732 490.61 71.2732C488.897 71.2732 487.613 71.1662 486.756 70.9521C486.007 71.7014 484.936 72.5578 484.936 73.4142C484.936 74.5917 485.686 75.9834 489.647 76.3045C493.607 76.7327 498.211 76.9468 502.385 77.2679C512.448 78.0173 516.195 83.5838 516.195 89.8997C516.195 102.531 503.563 109.811 490.075 109.811C477.336 109.811 468.558 103.709 468.558 95.6804C468.558 90.8632 474.339 87.5446 478.407 85.6178C475.302 84.3332 471.877 81.0147 471.769 76.4116C471.769 75.8763 471.984 75.4481 472.84 74.9129C474.981 73.6283 478.299 71.5944 480.119 69.4534C475.623 67.8476 470.806 63.5657 470.806 55.537C470.806 45.3674 479.477 38.5163 490.824 38.5163ZM490.61 45.9026C486.007 45.9026 483.224 50.0775 483.224 54.8947C483.224 60.7824 486.542 63.9939 490.931 63.9939C495.213 63.9939 498.104 60.1401 498.104 55.1088C498.104 50.3987 496.07 45.9026 490.61 45.9026ZM480.547 93.6464C480.547 98.3566 486.435 101.033 493.072 101.033C499.495 101.033 504.526 98.5707 504.526 93.9676C504.526 91.2913 503.135 89.0433 497.568 88.294C494.143 87.7587 491.145 87.5446 488.041 87.6517C486.435 87.6517 484.615 87.8658 483.652 88.6151C482.046 89.4715 480.547 90.9702 480.547 93.6464ZM561.139 75.4481L561.353 75.7693C561.353 80.6935 557.499 85.4037 555.251 86.3671C553.645 87.0094 549.042 88.1869 545.402 88.1869C529.666 88.1869 520.995 79.7301 520.995 63.7798C520.995 51.041 529.452 38.5163 544.011 38.5163C557.82 38.5163 563.172 48.4718 563.28 57.2498C563.28 58.7485 563.28 59.926 562.958 60.7824C562.637 62.3882 558.248 64.1009 553.859 65.1714C551.183 65.8137 539.943 65.9208 534.162 65.7067C534.805 74.4847 541.442 78.1243 548.614 78.1243C553.966 78.1243 559.426 76.1975 561.139 75.4481ZM543.047 46.5449C539.086 46.5449 534.805 50.1846 534.376 57.8921C538.551 58.2132 546.687 58.1062 549.256 57.8921C550.005 57.8921 550.648 56.9287 550.648 55.6441C550.755 50.7198 548.4 46.5449 543.047 46.5449ZM604.835 85.5107L604.942 58.5344C604.942 52.5397 601.838 48.6859 596.807 48.6859C592.525 48.6859 589.849 50.7198 587.601 52.5397V84.2261C587.601 86.153 587.386 86.6882 585.138 86.9023C581.392 87.4376 577.966 87.5446 574.005 87.5446C574.219 81.764 574.326 75.234 574.326 68.1688V50.6128C574.326 47.5084 573.898 45.7956 572.293 44.618V43.8687C573.47 41.4066 577.859 38.5163 580.856 38.5163C584.71 38.5163 586.423 42.6912 586.958 45.6885C591.775 41.5136 596.7 38.5163 602.159 38.5163C615.968 38.5163 618.217 50.3987 618.217 58.5344V71.4873C618.217 77.0538 618.431 82.9415 618.645 86.6882C616.183 86.9023 611.794 87.5446 607.083 87.5446C605.478 87.5446 604.835 86.9023 604.835 85.5107ZM648.08 38.5163C652.79 38.5163 656.858 39.6938 660.39 42.263C660.39 45.4744 658.999 50.1846 654.824 49.2211C652.897 48.3648 650.328 47.6154 647.866 47.6154C644.761 47.6154 642.62 49.1141 642.62 51.5762C642.62 53.7172 644.119 54.8947 646.367 56.0723C648.401 57.3569 653.325 59.4978 655.359 60.5683C661.247 63.7798 662.96 67.8476 662.96 72.4507C662.96 83.0486 653.325 88.1869 643.477 88.1869C639.623 88.1869 635.234 87.2235 632.344 85.5107C630.631 84.5473 629.239 83.2627 629.239 81.1217C629.239 78.5525 630.417 76.3045 631.701 74.8058C635.127 77.0538 640.158 78.9807 644.333 78.9807C647.973 78.9807 650.328 77.482 650.328 74.6988C650.328 72.986 649.364 71.7014 646.474 70.0957C643.691 68.597 640.908 67.4195 637.803 65.7067C633.307 63.2445 630.31 59.1767 630.31 53.5031C630.31 43.8687 638.66 38.5163 648.08 38.5163Z" fill="#2A2A2A"/>
<path d="M252.33 161.811L252.699 161.995C252.33 165.683 251.131 168.542 249.38 170.201C247.074 171.677 242.188 173.336 236.194 173.336C214.895 173.336 203.369 161.349 203.369 143.738C203.369 124.559 218.03 112.942 236.471 112.942C245.138 112.942 252.053 115.8 253.529 117.552C253.805 120.871 251.592 124.559 248.089 124.098C245.507 122.992 241.358 121.793 236.471 121.793C225.867 121.793 217.384 128.617 217.384 142.908C217.384 154.711 225.037 164.023 239.053 164.023C245.415 164.023 250.025 162.548 252.33 161.811ZM260.267 157.292V142.079C260.267 136.362 260.083 133.596 259.898 131.844C262.111 131.29 268.381 130.645 271.239 130.645C272.715 130.645 273.084 131.106 273.084 136.454C273.084 142.54 273.084 149.455 273.084 156.094C273.084 161.995 276.956 163.378 279.907 163.378C282.304 163.378 284.148 162.548 285.624 161.442V135.071C285.624 132.213 285.9 131.659 287.744 131.29C292.539 130.829 295.028 130.645 298.717 130.645C298.717 132.581 298.44 139.22 298.44 147.334V160.981C298.44 164.392 299.639 165.314 302.036 165.775V166.329C301.667 169.648 298.44 173.06 295.858 173.06C290.326 173.06 288.39 170.754 287.099 167.343C284.886 169.371 282.304 170.847 280.368 171.677C278.616 172.506 276.772 173.06 274.559 173.06C264.416 173.06 260.267 166.329 260.267 157.292ZM323.71 115.523V150.746C327.122 146.597 338.279 132.766 339.938 130.092C341.69 130 345.01 130.368 347.13 130.829C349.62 131.475 349.989 132.766 348.145 135.163C344.364 140.142 340.492 144.66 336.435 149.271C338.555 153.143 346.393 165.407 351.095 170.939L351.003 171.308C349.159 172.138 344.917 172.691 341.69 172.691C338.279 172.691 336.619 171.769 334.129 168.173C330.994 163.655 326.937 158.122 323.71 151.945V169.74C323.71 171.584 322.973 171.953 320.667 172.138C317.993 172.414 316.149 172.599 310.617 172.506C310.801 168.726 310.894 163.286 310.894 155.541V121.056C310.894 115.523 310.709 112.757 310.525 110.821C312.922 109.991 319.561 109.438 321.866 109.438C323.341 109.438 323.71 109.899 323.71 115.523ZM374.833 130.092C388.387 130.092 395.487 139.681 395.487 150.93C395.487 164.208 386.82 173.06 373.819 173.06C362.662 173.06 353.257 166.144 353.257 151.852C353.257 139.128 362.385 130.092 374.833 130.092ZM373.911 137.745C368.471 137.745 366.535 143.646 366.535 150.561C366.535 160.796 370.407 165.407 374.925 165.407C380.642 165.407 382.21 159.229 382.21 152.129C382.21 144.66 379.904 137.745 373.911 137.745ZM403.013 135.901V135.44C403.843 133.042 407.716 130.092 410.667 130.092C415.369 130.092 417.029 134.149 417.121 139.773C419.703 133.411 423.575 130.092 428.647 130.092C430.86 130.092 432.98 131.198 433.902 132.305C433.995 134.518 432.98 138.851 431.136 141.341C430.306 142.355 429.2 143.001 427.54 142.54C426.065 141.986 425.143 141.894 423.76 141.894C422.469 141.894 419.979 142.724 418.688 146.228C418.135 147.703 417.951 148.533 417.951 150.561V169.371C417.951 170.847 417.766 171.677 415.738 171.953C412.05 172.414 408.915 172.506 404.858 172.506C405.042 166.882 405.134 161.165 405.134 155.817V140.142C405.134 138.39 404.581 136.731 403.013 135.901ZM454.26 142.171V169.279C454.26 170.939 454.076 171.677 452.047 171.953C448.359 172.414 445.224 172.506 441.167 172.506C441.352 166.882 441.444 161.165 441.444 155.817V140.511C441.444 138.298 441.075 137.007 439.692 136.085V135.44C440.706 132.674 444.21 130.092 447.253 130.092C451.679 130.092 452.877 133.135 453.615 135.901C457.303 132.95 462.19 130.092 466.8 130.092C472.886 130.092 476.021 132.95 477.957 136.638C481.553 133.411 486.993 130.092 491.88 130.092C502.76 130.092 505.25 139.773 505.25 145.951V158.03C505.25 162.548 505.342 168.173 505.527 171.769C503.314 171.953 499.072 172.506 494.462 172.506C493.079 172.506 492.433 171.953 492.433 170.57V146.781C492.433 142.724 490.313 139.497 486.163 139.497C483.674 139.497 481.553 140.695 479.801 142.263V169.556C479.801 171.123 479.617 171.677 477.496 171.953C473.808 172.414 470.673 172.506 466.708 172.506C466.892 166.882 466.985 161.165 466.985 155.817V146.781C466.985 142.54 464.772 139.497 460.899 139.497C458.41 139.497 456.197 140.511 454.26 142.171ZM549.175 161.626L549.452 161.903C549.452 166.513 545.579 170.847 543.919 171.584C542.721 172.138 538.664 173.06 535.713 173.06C521.975 173.06 514.321 165.868 514.321 151.945C514.321 141.064 521.698 130.092 534.422 130.092C546.593 130.092 551.111 138.851 551.111 146.32C551.111 147.795 551.019 148.717 550.835 149.363C550.374 150.746 547.239 152.129 543.274 153.235C541.061 153.881 531.195 153.973 526.954 153.789C527.599 161.257 533.5 163.747 538.94 163.747C543.458 163.747 547.7 162.364 549.175 161.626ZM533.5 137.284C530.457 137.284 527.23 140.234 527.046 146.781C529.443 147.058 535.99 146.965 538.387 146.781C538.848 146.781 539.309 145.767 539.309 144.845C539.309 140.695 537.649 137.284 533.5 137.284ZM536.82 108.516C539.862 108.516 542.629 110.083 544.104 111.374C544.749 111.927 544.841 112.296 543.919 113.31C539.862 117.736 535.621 123.269 533.131 126.127C531.379 125.85 530.365 125.297 529.443 124.744C528.89 124.283 528.521 123.637 529.167 122.07C530.365 118.474 534.053 108.608 536.82 108.516ZM557.775 135.901V135.44C558.605 133.042 562.477 130.092 565.428 130.092C570.13 130.092 571.79 134.149 571.882 139.773C574.464 133.411 578.337 130.092 583.408 130.092C585.621 130.092 587.742 131.198 588.664 132.305C588.756 134.518 587.742 138.851 585.897 141.341C585.068 142.355 583.961 143.001 582.301 142.54C580.826 141.986 579.904 141.894 578.521 141.894C577.23 141.894 574.741 142.724 573.45 146.228C572.896 147.703 572.712 148.533 572.712 150.561V169.371C572.712 170.847 572.528 171.677 570.499 171.953C566.811 172.414 563.676 172.506 559.619 172.506C559.803 166.882 559.895 161.165 559.895 155.817V140.142C559.895 138.39 559.342 136.731 557.775 135.901ZM626.296 161.626L626.573 161.903C626.573 166.513 622.7 170.847 621.041 171.584C619.842 172.138 615.785 173.06 612.834 173.06C599.096 173.06 591.443 165.868 591.443 151.945C591.443 141.064 598.819 130.092 611.544 130.092C623.715 130.092 628.233 138.851 628.233 146.32C628.233 147.795 628.141 148.717 627.956 149.363C627.495 150.746 624.36 152.129 620.395 153.235C618.182 153.881 608.316 153.973 604.075 153.789C604.72 161.257 610.622 163.747 616.062 163.747C620.58 163.747 624.821 162.364 626.296 161.626ZM610.622 137.284C607.579 137.284 604.352 140.234 604.167 146.781C606.564 147.058 613.111 146.965 615.508 146.781C615.969 146.781 616.43 145.767 616.43 144.845C616.43 140.695 614.771 137.284 610.622 137.284ZM613.941 108.516C616.984 108.516 619.75 110.083 621.225 111.374C621.871 111.927 621.963 112.296 621.041 113.31C616.984 117.736 612.742 123.269 610.253 126.127C608.501 125.85 607.487 125.297 606.564 124.744C606.011 124.283 605.642 123.637 606.288 122.07C607.487 118.474 611.175 108.608 613.941 108.516ZM650.65 130.092C654.523 130.092 658.027 130.922 661.438 133.319C661.623 136.085 660.332 140.142 656.736 139.866C654.892 139.036 652.679 138.483 650.558 138.483C648.068 138.483 646.501 139.773 646.501 141.433C646.501 143.001 647.792 143.923 649.636 144.937C651.203 145.859 655.076 147.611 656.92 148.625C661.807 151.299 663.559 154.895 663.559 159.137C663.559 168.357 655.353 173.06 646.317 173.06C643.182 173.06 639.217 172.23 636.543 170.662C635.068 169.74 634.053 168.726 634.053 167.066C634.053 164.853 635.252 162.456 636.635 161.165C639.309 162.825 643.366 164.577 647.146 164.577C650.005 164.577 651.665 163.378 651.665 161.534C651.665 160.059 650.927 159.137 648.53 157.846C646.317 156.647 643.827 155.448 641.43 154.065C637.741 152.037 634.975 148.348 634.975 143.462C634.975 134.794 642.352 130.092 650.65 130.092Z" fill="#2A2A2A"/>
<path opacity="0.55" d="M236.614 260.652V236.114C236.614 233.618 236.614 231.487 236.354 229.043C237.757 228.835 241.032 228.524 244.152 228.524C251.482 228.524 256.837 231.383 256.837 238.661C256.837 245.471 251.222 248.798 246.959 248.798C245.711 248.798 244.724 248.643 244.1 248.227C243.476 247.915 242.8 246.615 242.852 245.471C243.528 245.679 244.672 245.783 245.451 245.783C247.843 245.783 251.794 244.536 251.794 238.817C251.794 232.89 247.323 231.747 244.152 231.747C243.112 231.747 242.28 231.747 241.344 231.903V254.933C241.344 258.572 241.448 260.132 241.5 261.171C240.721 261.431 238.641 261.587 237.497 261.587C236.977 261.587 236.614 261.431 236.614 260.652ZM271.672 237.933C278.899 237.933 282.954 242.924 282.954 249.682C282.954 256.649 278.483 261.899 271.464 261.899C263.874 261.899 260.027 256.337 260.027 250.15C260.027 243.288 264.81 237.933 271.672 237.933ZM271.36 241C267.929 241 264.862 244.068 264.862 249.578C264.862 255.765 268.033 258.832 271.88 258.832C274.948 258.832 278.119 256.233 278.119 250.046C278.119 245.627 276.143 241 271.36 241ZM290.118 237.933C290.638 237.933 290.95 238.245 291.158 238.921C292.717 243.704 294.277 248.954 296.252 255.921C298.54 248.954 299.736 245.627 301.399 240.585C301.295 240.169 301.191 239.649 301.087 239.337C301.763 238.973 303.583 238.505 304.414 238.505C305.09 238.505 305.246 239.129 305.714 240.689C306.702 244.068 308.313 249.006 310.393 255.661C313.616 246.251 315.436 240.533 316.112 237.933C317.203 237.933 318.399 238.193 319.283 238.557C319.907 238.973 319.855 239.701 319.231 241.468C316.839 247.915 315.176 252.801 312.524 259.768C312.161 260.808 311.901 261.223 311.069 261.483C310.237 261.691 309.145 261.847 308.262 261.899C306.286 255.349 305.038 251.71 303.063 245.471C302.075 248.591 299.112 256.856 298.072 259.976C297.76 260.808 297.448 261.223 296.824 261.431C295.941 261.639 294.849 261.847 293.965 261.899C292.873 258.676 291.054 252.75 288.974 246.823C287.519 242.716 286.687 240.533 286.063 239.129C286.895 238.609 289.13 237.933 290.118 237.933ZM341.357 256.856L341.461 257.012C341.461 258.676 340.266 260.288 339.33 260.756C338.446 261.223 336.315 261.899 334.235 261.899C326.905 261.899 322.954 257.584 322.954 250.254C322.954 243.808 326.905 237.933 333.819 237.933C339.85 237.933 342.449 242.404 342.553 246.563C342.553 247.135 342.501 247.811 342.397 248.227C342.241 249.058 339.694 249.786 337.874 250.098C336.471 250.306 331.272 250.41 327.581 250.254C327.633 255.349 330.856 258.26 335.379 258.26C337.822 258.26 340.37 257.376 341.357 256.856ZM333.247 240.844C330.648 240.844 328.101 243.184 327.737 247.343C331.376 247.447 336.003 247.395 336.99 247.343C337.614 247.291 338.03 246.875 338.03 246.251C338.082 243.184 336.471 240.844 333.247 240.844ZM346.899 240.065V239.857C347.367 239.077 349.03 237.933 349.914 237.933C351.37 237.933 352.358 239.753 352.358 243.08C354.021 239.701 356.257 237.933 358.7 237.933C359.948 237.933 361.039 238.609 361.351 239.025C361.351 239.805 361.039 241.208 360.415 242.092C360.052 242.56 359.532 242.768 358.908 242.56C358.284 242.352 357.712 242.3 357.192 242.3C356.049 242.3 354.333 243.392 353.241 245.939C352.877 246.823 352.669 247.551 352.669 248.695V260.132C352.669 260.911 352.513 261.275 351.734 261.379C350.382 261.535 349.134 261.587 347.939 261.587C348.043 259.664 348.095 256.597 348.095 252.022V243.34C348.095 241.936 347.835 240.74 346.899 240.065ZM381.743 256.856L381.847 257.012C381.847 258.676 380.651 260.288 379.715 260.756C378.831 261.223 376.7 261.899 374.621 261.899C367.29 261.899 363.339 257.584 363.339 250.254C363.339 243.808 367.29 237.933 374.205 237.933C380.235 237.933 382.835 242.404 382.938 246.563C382.938 247.135 382.886 247.811 382.783 248.227C382.627 249.058 380.079 249.786 378.26 250.098C376.856 250.306 371.657 250.41 367.966 250.254C368.018 255.349 371.241 258.26 375.764 258.26C378.208 258.26 380.755 257.376 381.743 256.856ZM373.633 240.844C371.033 240.844 368.486 243.184 368.122 247.343C371.761 247.447 376.388 247.395 377.376 247.343C378 247.291 378.416 246.875 378.416 246.251C378.468 243.184 376.856 240.844 373.633 240.844ZM404.214 238.661V231.799C404.214 229.043 404.11 227.796 404.006 226.756C404.942 226.392 407.177 226.028 407.957 226.028C408.529 226.028 408.737 226.288 408.737 229.407V255.869C408.737 258.26 409.568 258.78 411.128 259.04V259.196C410.92 260.444 409.776 261.899 408.581 261.899C406.137 261.899 405.098 260.548 404.734 258.988C402.602 260.652 399.327 261.899 397.352 261.899C391.789 261.899 387.214 257.844 387.214 250.566C387.214 243.132 392.829 237.933 400.211 237.933C402.082 237.933 403.59 238.401 404.214 238.661ZM404.214 256.545V241.832C403.486 241.468 401.978 241.052 400.107 241.052C396.104 241.052 392.049 243.912 392.049 249.994C392.049 255.037 395.168 258.156 399.327 258.156C400.939 258.156 402.914 257.48 404.214 256.545ZM434.146 229.407V240.221C436.122 239.129 438.877 237.933 441.112 237.933C445.947 237.933 450.886 241.416 450.886 248.902C450.886 257.168 444.544 261.899 436.953 261.899C434.458 261.899 431.859 261.327 430.507 260.6C429.883 260.288 429.623 259.976 429.623 259.04V232.475C429.623 229.355 429.519 227.796 429.415 226.756C430.507 226.392 432.587 226.028 433.366 226.028C433.99 226.028 434.146 226.288 434.146 229.407ZM434.146 242.976V258.312C435.134 258.624 436.382 258.78 437.473 258.78C441.788 258.78 446.051 255.921 446.051 249.526C446.051 244.588 443.296 241.624 438.929 241.624C437.629 241.624 435.394 242.3 434.146 242.976ZM455.654 270.945V270.737C457.422 268.554 460.385 264.291 462.568 259.976C462.309 259.612 461.789 258.676 461.425 257.74C460.697 255.713 456.33 244.068 454.095 239.129C455.03 238.557 456.954 237.933 457.838 237.933C458.565 237.933 458.773 238.297 458.981 238.921C460.541 242.716 463.66 251.762 464.96 255.297C466.987 250.566 469.743 242.196 470.73 237.933C471.458 237.933 472.862 238.141 473.59 238.401C474.473 238.765 474.577 239.181 474.266 240.325C472.654 245.887 470.678 251.762 467.871 257.844C464.804 264.603 459.865 272.297 458.877 272.297C457.63 272.297 456.122 271.569 455.654 270.945Z" fill="#2A2A2A"/>
<path d="M615.061 243.129C614.398 241.766 613.459 240.736 612.262 239.999C611.065 239.263 609.685 238.895 608.138 238.895C606.591 238.895 605.21 239.263 604.014 239.999C602.817 240.736 601.878 241.785 601.215 243.129C600.552 244.491 600.221 246.074 600.221 247.879V251.947C600.221 253.751 600.552 255.334 601.215 256.697C601.878 258.059 602.817 259.09 604.014 259.826C605.21 260.563 606.591 260.913 608.138 260.913C609.685 260.913 611.065 260.544 612.262 259.826C613.459 259.09 614.195 258.262 614.858 256.899C615.171 256.255 615.448 255.445 615.595 254.616L611.802 253.751C611.636 254.561 611.36 255.334 610.937 255.868C610.255 256.752 609.261 257.139 608.138 257.139C607.015 257.139 606.021 256.734 605.339 255.868C604.658 254.985 604.327 253.733 604.327 252.186V250.658H616.074V247.86C616.055 246.056 615.724 244.491 615.061 243.129ZM608.138 242.669C609.261 242.669 610.255 243.055 610.937 243.92C611.544 244.694 611.876 245.872 611.949 247.216H604.327C604.382 245.872 604.713 244.694 605.339 243.92C606.002 243.055 606.996 242.669 608.138 242.669Z" fill="#0B41CD"/>
<path d="M585.804 260.434V246.553C585.804 245.393 586.136 244.454 586.78 243.773C587.443 243.092 588.253 242.742 589.266 242.742C590.26 242.742 591.089 243.092 591.751 243.773C592.414 244.454 592.727 245.375 592.727 246.553V260.434H596.833V245.688C596.833 243.552 596.281 241.895 595.176 240.698C594.071 239.502 592.562 238.913 590.647 238.913C589.597 238.913 588.658 239.115 587.774 239.539C586.909 239.962 586.209 240.514 585.823 241.103V230.555H581.717V260.434H585.804Z" fill="#0B41CD"/>
<path d="M567.024 252.15C567.024 253.696 567.374 254.948 568.055 255.813C568.754 256.678 569.749 257.065 570.872 257.065C572.897 257.065 574.168 255.758 574.646 253.162L578.458 254.046C578.145 256.218 577.353 257.912 576.082 259.108C574.812 260.305 573.081 260.913 570.872 260.913C568.478 260.913 566.545 260.103 565.09 258.483C563.636 256.862 562.899 254.653 562.899 251.892V247.915C562.899 245.154 563.617 242.945 565.09 241.325C566.545 239.705 568.478 238.895 570.872 238.895C573.081 238.895 574.812 239.502 576.082 240.699C577.353 241.895 578.145 243.589 578.458 245.761L574.646 246.645C574.168 244.049 572.916 242.742 570.872 242.742C569.749 242.742 568.736 243.129 568.055 243.994C567.355 244.859 567.024 246.093 567.024 247.658V252.15Z" fill="#0B41CD"/>
<path d="M551.834 257.064C550.711 257.064 549.716 256.659 549.035 255.794C548.354 254.91 548.022 253.658 548.022 252.112V247.657C548.022 246.11 548.354 244.858 549.035 243.993C549.716 243.128 550.711 242.741 551.834 242.741C552.957 242.741 553.951 243.128 554.632 243.993C555.314 244.858 555.645 246.092 555.645 247.657V252.112C555.645 253.658 555.314 254.91 554.632 255.794C553.951 256.678 552.957 257.064 551.834 257.064ZM551.834 260.93C553.38 260.93 554.761 260.562 555.958 259.844C557.155 259.108 558.094 258.058 558.757 256.714C559.419 255.352 559.751 253.769 559.751 251.965V247.896C559.751 246.092 559.419 244.509 558.757 243.146C558.094 241.784 557.155 240.753 555.958 240.017C554.761 239.28 553.38 238.912 551.834 238.912C550.287 238.912 548.906 239.28 547.709 240.017C546.513 240.753 545.574 241.802 544.911 243.146C544.248 244.509 543.917 246.092 543.917 247.896V251.965C543.917 253.769 544.248 255.352 544.911 256.714C545.574 258.077 546.513 259.108 547.709 259.844C548.906 260.562 550.287 260.93 551.834 260.93Z" fill="#0B41CD"/>
<path d="M529.85 243.165V234.457H533.992C535.097 234.457 535.963 234.807 536.57 235.525C537.178 236.243 537.491 237.329 537.491 238.82C537.491 240.293 537.178 241.398 536.57 242.116C535.963 242.834 535.097 243.184 533.992 243.184L529.85 243.165ZM529.85 260.433V247.105H533.366C534.379 247.105 535.042 247.344 535.484 247.804C535.926 248.265 536.165 249.001 536.294 250.05L537.454 260.433H541.578L540.345 249.664C540.197 248.375 540.032 247.528 539.516 246.773C539.037 246.092 538.356 245.522 537.564 245.264C538.816 244.675 539.811 243.828 540.529 242.76C541.247 241.692 541.615 240.22 541.615 238.342C541.615 235.93 540.934 234.015 539.59 232.616C538.227 231.217 536.368 230.518 534.011 230.518H525.762V260.433H529.85Z" fill="#0B41CD"/>
<path d="M641.998 247.711L608.727 285.985H527.972L494.701 247.711L527.972 209.438H608.709L641.998 247.711ZM606.941 282.101L636.842 247.711L606.941 213.322H529.739L499.857 247.711L529.739 282.101H606.941Z" fill="#0B41CD"/>
</g>
<defs>
<linearGradient id="paint0_linear_423_2999" x1="63.6043" y1="-112.625" x2="-119.761" y2="113.334" gradientUnits="userSpaceOnUse">
<stop offset="0.5" stop-color="#26BECF"/>
<stop offset="0.744792" stop-color="#5EBB75"/>
<stop offset="0.901042" stop-color="#8EB927"/>
</linearGradient>
<clipPath id="clip0_423_2999">
<rect width="666" height="288" fill="white"/>
</clipPath>
</defs>
</svg>
