<svg width="666" height="288" viewBox="0 0 666 288" fill="none" xmlns="http://www.w3.org/2000/svg">
<g clip-path="url(#clip0_449_6298)">
<path d="M93.5362 -0.904297C128.405 -0.904242 158.794 18.0579 174.88 46.1729C175.382 47.0509 175.647 48.0451 175.647 49.0566V135.322C175.647 136.336 175.381 137.333 174.876 138.212C158.075 167.492 125.743 186.868 89.0304 185.151L88.1622 185.107C40.388 182.44 1.90639 143.46 0.0713707 95.8535L0.0313317 94.6113C-1.31837 42.0769 41.1132 -0.904297 93.5362 -0.904297ZM93.5362 10.709C47.5663 10.709 10.4609 48.3818 11.6407 94.3174L11.6759 95.4043V95.4053C13.2782 136.983 46.9727 171.176 88.8097 173.512H88.8087C120.762 175.292 148.989 158.864 164.033 133.743V50.6318C149.757 26.7262 123.55 10.709 93.5362 10.709ZM96.2452 75.3525C104.956 75.3526 112.018 82.8852 112.018 92.1768C112.018 101.468 104.956 109 96.2452 109C87.5344 109 80.4729 101.468 80.4727 92.1768C80.4727 82.8852 87.5343 75.3525 96.2452 75.3525Z" fill="#D9D9D9"/>
<path d="M93.5362 -0.904297C128.405 -0.904242 158.794 18.0579 174.88 46.1729C175.382 47.0509 175.647 48.0451 175.647 49.0566V135.322C175.647 136.336 175.381 137.333 174.876 138.212C158.075 167.492 125.743 186.868 89.0304 185.151L88.1622 185.107C40.388 182.44 1.90639 143.46 0.0713707 95.8535L0.0313317 94.6113C-1.31837 42.0769 41.1132 -0.904297 93.5362 -0.904297ZM93.5362 10.709C47.5663 10.709 10.4609 48.3818 11.6407 94.3174L11.6759 95.4043V95.4053C13.2782 136.983 46.9727 171.176 88.8097 173.512H88.8087C120.762 175.292 148.989 158.864 164.033 133.743V50.6318C149.757 26.7262 123.55 10.709 93.5362 10.709ZM96.2452 75.3525C104.956 75.3526 112.018 82.8852 112.018 92.1768C112.018 101.468 104.956 109 96.2452 109C87.5344 109 80.4729 101.468 80.4727 92.1768C80.4727 82.8852 87.5343 75.3525 96.2452 75.3525Z" fill="url(#paint0_linear_449_6298)"/>
<path d="M211.257 85.4037V34.1273C211.257 26.955 211.15 22.566 210.936 20.5321C212.969 20.2109 220.57 19.6757 222.818 19.6757C224.745 19.6757 225.066 20.6391 225.066 25.5633V73.5212C225.066 81.0147 225.28 84.5473 225.387 86.6882C223.567 87.2235 216.181 87.5446 213.612 87.5446C212.006 87.5446 211.257 87.2235 211.257 85.4037ZM272.513 85.5107L272.62 58.5344C272.62 52.5397 269.516 48.6859 264.484 48.6859C260.202 48.6859 257.526 50.7198 255.278 52.5397V84.2261C255.278 86.153 255.064 86.6882 252.816 86.9023C249.069 87.4376 245.644 87.5446 241.683 87.5446C241.897 81.764 242.004 75.234 242.004 68.1688V50.6128C242.004 47.5084 241.576 45.7956 239.97 44.618V43.8687C241.148 41.4066 245.537 38.5163 248.534 38.5163C252.388 38.5163 254.1 42.6912 254.636 45.6885C259.453 41.5136 264.377 38.5163 269.837 38.5163C283.646 38.5163 285.894 50.3987 285.894 58.5344V71.4873C285.894 77.0538 286.108 82.9415 286.322 86.6882C283.86 86.9023 279.471 87.5446 274.761 87.5446C273.155 87.5446 272.513 86.9023 272.513 85.5107ZM329.352 76.7327L329.674 76.9468C330.209 79.623 329.781 83.0486 327.747 84.8684C325.178 87.1164 320.682 88.1869 315.864 88.1869C304.838 88.1869 301.306 81.2288 301.306 73.6283V48.5789C297.024 48.5789 295.097 46.5449 295.097 45.3674C296.81 42.37 305.588 34.5554 307.407 33.0568C309.227 31.5581 311.689 30.0594 315.65 29.8453C315.222 33.0568 315.008 36.6964 315.008 39.8008H330.851C329.567 47.4013 327.104 47.9366 324.963 48.0436C322.608 48.3648 318.969 48.4718 314.687 48.4718C314.259 57.1428 314.366 67.0983 314.794 71.5944C315.329 76.7327 318.219 78.6596 321.859 78.6596C325.071 78.6596 328.068 77.482 329.352 76.7327ZM375.979 75.4481L376.193 75.7693C376.193 80.6935 372.339 85.4037 370.091 86.3671C368.486 87.0094 363.882 88.1869 360.243 88.1869C344.507 88.1869 335.836 79.7301 335.836 63.7798C335.836 51.041 344.293 38.5163 358.851 38.5163C372.66 38.5163 378.013 48.4718 378.12 57.2498C378.12 58.7485 378.12 59.926 377.799 60.7824C377.478 62.3882 373.089 64.1009 368.7 65.1714C366.023 65.8137 354.783 65.9208 349.003 65.7067C349.645 74.4847 356.282 78.1243 363.454 78.1243C368.807 78.1243 374.266 76.1975 375.979 75.4481ZM357.888 46.5449C353.927 46.5449 349.645 50.1846 349.217 57.8921C353.392 58.2132 361.527 58.1062 364.097 57.8921C364.846 57.8921 365.488 56.9287 365.488 55.6441C365.595 50.7198 363.24 46.5449 357.888 46.5449ZM388.632 86.3671V27.7043C388.632 21.3884 388.418 18.6052 388.203 16.4642C390.344 15.5007 397.517 14.4303 399.872 14.4303C401.585 14.4303 402.013 14.9655 402.013 21.3884V72.7719C402.013 78.0173 402.227 83.7979 402.441 86.9023C400.086 87.4376 391.629 87.7587 390.13 87.7587C389.06 87.7587 388.632 87.4376 388.632 86.3671ZM416.882 86.3671V27.7043C416.882 21.3884 416.668 18.6052 416.454 16.4642C418.595 15.5007 425.768 14.4303 428.123 14.4303C429.835 14.4303 430.264 14.9655 430.264 21.3884V72.7719C430.264 78.0173 430.478 83.7979 430.692 86.9023C428.337 87.4376 419.88 87.7587 418.381 87.7587C417.311 87.7587 416.882 87.4376 416.882 86.3671ZM451.984 15.7149C456.159 15.7149 458.836 18.6052 458.836 22.7801C458.836 26.8479 455.945 30.1664 451.77 30.1664C448.452 30.1664 444.812 28.1325 444.812 23.1012C444.812 17.7488 449.201 15.7149 451.984 15.7149ZM458.514 45.7956V84.3332C458.514 86.2601 457.765 86.7953 455.303 87.1164C453.162 87.4376 449.201 87.5446 444.919 87.5446C445.026 83.1556 445.24 76.9468 445.24 70.6309V52.4326C445.24 45.7956 445.026 42.37 444.812 40.4431C447.274 39.6938 454.34 39.1586 456.588 39.1586C458.086 39.1586 458.514 39.6938 458.514 45.7956ZM490.826 38.5163C493.074 38.5163 496.606 38.8374 499.497 39.4797C502.601 40.122 506.027 40.9784 508.489 40.9784C511.486 40.9784 514.698 40.5502 516.303 39.9079C516.624 40.4431 516.839 41.8348 516.839 42.7982C516.839 46.4379 515.34 48.6859 511.486 49.2211C510.63 49.3282 509.238 49.4352 508.382 49.4352C509.238 51.4692 509.559 53.5031 509.559 55.2159C509.559 66.1349 500.888 71.2732 490.612 71.2732C488.899 71.2732 487.614 71.1662 486.758 70.9521C486.008 71.7014 484.938 72.5578 484.938 73.4142C484.938 74.5917 485.687 75.9834 489.648 76.3045C493.609 76.7327 498.212 76.9468 502.387 77.2679C512.45 78.0173 516.196 83.5838 516.196 89.8997C516.196 102.531 503.564 109.811 490.076 109.811C477.337 109.811 468.559 103.709 468.559 95.6804C468.559 90.8632 474.34 87.5446 478.408 85.6178C475.304 84.3332 471.878 81.0147 471.771 76.4116C471.771 75.8763 471.985 75.4481 472.841 74.9129C474.982 73.6283 478.301 71.5944 480.121 69.4534C475.625 67.8476 470.808 63.5657 470.808 55.537C470.808 45.3674 479.478 38.5163 490.826 38.5163ZM490.612 45.9026C486.008 45.9026 483.225 50.0775 483.225 54.8947C483.225 60.7824 486.544 63.9939 490.933 63.9939C495.215 63.9939 498.105 60.1401 498.105 55.1088C498.105 50.3987 496.071 45.9026 490.612 45.9026ZM480.549 93.6464C480.549 98.3566 486.437 101.033 493.074 101.033C499.497 101.033 504.528 98.5707 504.528 93.9676C504.528 91.2913 503.136 89.0433 497.57 88.294C494.144 87.7587 491.147 87.5446 488.042 87.6517C486.437 87.6517 484.617 87.8658 483.653 88.6151C482.048 89.4715 480.549 90.9702 480.549 93.6464ZM561.14 75.4481L561.354 75.7693C561.354 80.6935 557.5 85.4037 555.252 86.3671C553.647 87.0094 549.044 88.1869 545.404 88.1869C529.668 88.1869 520.997 79.7301 520.997 63.7798C520.997 51.041 529.454 38.5163 544.012 38.5163C557.822 38.5163 563.174 48.4718 563.281 57.2498C563.281 58.7485 563.281 59.926 562.96 60.7824C562.639 62.3882 558.25 64.1009 553.861 65.1714C551.184 65.8137 539.944 65.9208 534.164 65.7067C534.806 74.4847 541.443 78.1243 548.615 78.1243C553.968 78.1243 559.427 76.1975 561.14 75.4481ZM543.049 46.5449C539.088 46.5449 534.806 50.1846 534.378 57.8921C538.553 58.2132 546.688 58.1062 549.258 57.8921C550.007 57.8921 550.649 56.9287 550.649 55.6441C550.756 50.7198 548.401 46.5449 543.049 46.5449ZM604.837 85.5107L604.944 58.5344C604.944 52.5397 601.84 48.6859 596.808 48.6859C592.526 48.6859 589.85 50.7198 587.602 52.5397V84.2261C587.602 86.153 587.388 86.6882 585.14 86.9023C581.393 87.4376 577.968 87.5446 574.007 87.5446C574.221 81.764 574.328 75.234 574.328 68.1688V50.6128C574.328 47.5084 573.9 45.7956 572.294 44.618V43.8687C573.472 41.4066 577.861 38.5163 580.858 38.5163C584.712 38.5163 586.424 42.6912 586.96 45.6885C591.777 41.5136 596.701 38.5163 602.161 38.5163C615.97 38.5163 618.218 50.3987 618.218 58.5344V71.4873C618.218 77.0538 618.432 82.9415 618.646 86.6882C616.184 86.9023 611.795 87.5446 607.085 87.5446C605.479 87.5446 604.837 86.9023 604.837 85.5107ZM648.081 38.5163C652.791 38.5163 656.859 39.6938 660.392 42.263C660.392 45.4744 659 50.1846 654.825 49.2211C652.899 48.3648 650.329 47.6154 647.867 47.6154C644.763 47.6154 642.622 49.1141 642.622 51.5762C642.622 53.7172 644.12 54.8947 646.369 56.0723C648.402 57.3569 653.327 59.4978 655.361 60.5683C661.248 63.7798 662.961 67.8476 662.961 72.4507C662.961 83.0486 653.327 88.1869 643.478 88.1869C639.624 88.1869 635.235 87.2235 632.345 85.5107C630.632 84.5473 629.241 83.2627 629.241 81.1217C629.241 78.5525 630.418 76.3045 631.703 74.8058C635.128 77.0538 640.16 78.9807 644.335 78.9807C647.974 78.9807 650.329 77.482 650.329 74.6988C650.329 72.986 649.366 71.7014 646.476 70.0957C643.692 68.597 640.909 67.4195 637.805 65.7067C633.309 63.2445 630.311 59.1767 630.311 53.5031C630.311 43.8687 638.661 38.5163 648.081 38.5163Z" fill="white"/>
<path d="M252.33 160.811L252.699 160.995C252.33 164.683 251.131 167.542 249.38 169.201C247.074 170.677 242.188 172.336 236.194 172.336C214.895 172.336 203.369 160.349 203.369 142.738C203.369 123.559 218.03 111.942 236.471 111.942C245.138 111.942 252.053 114.8 253.529 116.552C253.805 119.871 251.592 123.559 248.089 123.098C245.507 121.992 241.358 120.793 236.471 120.793C225.867 120.793 217.384 127.617 217.384 141.908C217.384 153.711 225.037 163.023 239.053 163.023C245.415 163.023 250.025 161.548 252.33 160.811ZM260.267 156.292V141.079C260.267 135.362 260.083 132.596 259.898 130.844C262.111 130.29 268.381 129.645 271.239 129.645C272.715 129.645 273.084 130.106 273.084 135.454C273.084 141.54 273.084 148.455 273.084 155.094C273.084 160.995 276.956 162.378 279.907 162.378C282.304 162.378 284.148 161.548 285.624 160.442V134.071C285.624 131.213 285.9 130.659 287.744 130.29C292.539 129.829 295.028 129.645 298.717 129.645C298.717 131.581 298.44 138.22 298.44 146.334V159.981C298.44 163.392 299.639 164.314 302.036 164.775V165.329C301.667 168.648 298.44 172.06 295.858 172.06C290.326 172.06 288.39 169.754 287.099 166.343C284.886 168.371 282.304 169.847 280.368 170.677C278.616 171.506 276.772 172.06 274.559 172.06C264.416 172.06 260.267 165.329 260.267 156.292ZM323.71 114.523V149.746C327.122 145.597 338.279 131.766 339.938 129.092C341.69 129 345.01 129.368 347.13 129.829C349.62 130.475 349.989 131.766 348.145 134.163C344.364 139.142 340.492 143.66 336.435 148.271C338.555 152.143 346.393 164.407 351.095 169.939L351.003 170.308C349.159 171.138 344.917 171.691 341.69 171.691C338.279 171.691 336.619 170.769 334.129 167.173C330.994 162.655 326.937 157.122 323.71 150.945V168.74C323.71 170.584 322.973 170.953 320.667 171.138C317.993 171.414 316.149 171.599 310.617 171.506C310.801 167.726 310.894 162.286 310.894 154.541V120.056C310.894 114.523 310.709 111.757 310.525 109.821C312.922 108.991 319.561 108.438 321.866 108.438C323.341 108.438 323.71 108.899 323.71 114.523ZM374.833 129.092C388.387 129.092 395.487 138.681 395.487 149.93C395.487 163.208 386.82 172.06 373.819 172.06C362.662 172.06 353.257 165.144 353.257 150.852C353.257 138.128 362.385 129.092 374.833 129.092ZM373.911 136.745C368.471 136.745 366.535 142.646 366.535 149.561C366.535 159.796 370.407 164.407 374.925 164.407C380.642 164.407 382.21 158.229 382.21 151.129C382.21 143.66 379.904 136.745 373.911 136.745ZM403.013 134.901V134.44C403.843 132.042 407.716 129.092 410.667 129.092C415.369 129.092 417.029 133.149 417.121 138.773C419.703 132.411 423.575 129.092 428.647 129.092C430.86 129.092 432.98 130.198 433.902 131.305C433.995 133.518 432.98 137.851 431.136 140.341C430.306 141.355 429.2 142.001 427.54 141.54C426.065 140.986 425.143 140.894 423.76 140.894C422.469 140.894 419.979 141.724 418.688 145.228C418.135 146.703 417.951 147.533 417.951 149.561V168.371C417.951 169.847 417.766 170.677 415.738 170.953C412.05 171.414 408.915 171.506 404.858 171.506C405.042 165.882 405.134 160.165 405.134 154.817V139.142C405.134 137.39 404.581 135.731 403.013 134.901ZM454.26 141.171V168.279C454.26 169.939 454.076 170.677 452.047 170.953C448.359 171.414 445.224 171.506 441.167 171.506C441.352 165.882 441.444 160.165 441.444 154.817V139.511C441.444 137.298 441.075 136.007 439.692 135.085V134.44C440.706 131.674 444.21 129.092 447.253 129.092C451.679 129.092 452.877 132.135 453.615 134.901C457.303 131.95 462.19 129.092 466.8 129.092C472.886 129.092 476.021 131.95 477.957 135.638C481.553 132.411 486.993 129.092 491.88 129.092C502.76 129.092 505.25 138.773 505.25 144.951V157.03C505.25 161.548 505.342 167.173 505.527 170.769C503.314 170.953 499.072 171.506 494.462 171.506C493.079 171.506 492.433 170.953 492.433 169.57V145.781C492.433 141.724 490.313 138.497 486.163 138.497C483.674 138.497 481.553 139.695 479.801 141.263V168.556C479.801 170.123 479.617 170.677 477.496 170.953C473.808 171.414 470.673 171.506 466.708 171.506C466.892 165.882 466.985 160.165 466.985 154.817V145.781C466.985 141.54 464.772 138.497 460.899 138.497C458.41 138.497 456.197 139.511 454.26 141.171ZM549.175 160.626L549.452 160.903C549.452 165.513 545.579 169.847 543.919 170.584C542.721 171.138 538.664 172.06 535.713 172.06C521.974 172.06 514.321 164.868 514.321 150.945C514.321 140.064 521.698 129.092 534.422 129.092C546.593 129.092 551.111 137.851 551.111 145.32C551.111 146.795 551.019 147.717 550.835 148.363C550.374 149.746 547.239 151.129 543.274 152.235C541.061 152.881 531.195 152.973 526.954 152.789C527.599 160.257 533.5 162.747 538.94 162.747C543.458 162.747 547.7 161.364 549.175 160.626ZM533.5 136.284C530.457 136.284 527.23 139.234 527.046 145.781C529.443 146.058 535.99 145.965 538.387 145.781C538.848 145.781 539.309 144.767 539.309 143.845C539.309 139.695 537.649 136.284 533.5 136.284ZM536.82 107.516C539.862 107.516 542.629 109.083 544.104 110.374C544.749 110.927 544.841 111.296 543.919 112.31C539.862 116.736 535.621 122.269 533.131 125.127C531.379 124.85 530.365 124.297 529.443 123.744C528.89 123.283 528.521 122.637 529.167 121.07C530.365 117.474 534.053 107.608 536.82 107.516ZM557.775 134.901V134.44C558.605 132.042 562.477 129.092 565.428 129.092C570.13 129.092 571.79 133.149 571.882 138.773C574.464 132.411 578.337 129.092 583.408 129.092C585.621 129.092 587.742 130.198 588.664 131.305C588.756 133.518 587.742 137.851 585.897 140.341C585.068 141.355 583.961 142.001 582.301 141.54C580.826 140.986 579.904 140.894 578.521 140.894C577.23 140.894 574.741 141.724 573.45 145.228C572.896 146.703 572.712 147.533 572.712 149.561V168.371C572.712 169.847 572.528 170.677 570.499 170.953C566.811 171.414 563.676 171.506 559.619 171.506C559.803 165.882 559.895 160.165 559.895 154.817V139.142C559.895 137.39 559.342 135.731 557.775 134.901ZM626.296 160.626L626.573 160.903C626.573 165.513 622.7 169.847 621.041 170.584C619.842 171.138 615.785 172.06 612.834 172.06C599.096 172.06 591.443 164.868 591.443 150.945C591.443 140.064 598.819 129.092 611.544 129.092C623.715 129.092 628.233 137.851 628.233 145.32C628.233 146.795 628.141 147.717 627.956 148.363C627.495 149.746 624.36 151.129 620.395 152.235C618.182 152.881 608.316 152.973 604.075 152.789C604.72 160.257 610.622 162.747 616.062 162.747C620.58 162.747 624.821 161.364 626.296 160.626ZM610.622 136.284C607.579 136.284 604.352 139.234 604.167 145.781C606.564 146.058 613.111 145.965 615.508 145.781C615.969 145.781 616.43 144.767 616.43 143.845C616.43 139.695 614.771 136.284 610.622 136.284ZM613.941 107.516C616.984 107.516 619.75 109.083 621.225 110.374C621.871 110.927 621.963 111.296 621.041 112.31C616.984 116.736 612.742 122.269 610.253 125.127C608.501 124.85 607.487 124.297 606.564 123.744C606.011 123.283 605.642 122.637 606.288 121.07C607.487 117.474 611.175 107.608 613.941 107.516ZM650.65 129.092C654.523 129.092 658.027 129.922 661.438 132.319C661.623 135.085 660.332 139.142 656.736 138.866C654.892 138.036 652.679 137.483 650.558 137.483C648.068 137.483 646.501 138.773 646.501 140.433C646.501 142.001 647.792 142.923 649.636 143.937C651.203 144.859 655.076 146.611 656.92 147.625C661.807 150.299 663.559 153.895 663.559 158.137C663.559 167.357 655.353 172.06 646.317 172.06C643.182 172.06 639.217 171.23 636.543 169.662C635.067 168.74 634.053 167.726 634.053 166.066C634.053 163.853 635.252 161.456 636.635 160.165C639.309 161.825 643.366 163.577 647.146 163.577C650.005 163.577 651.664 162.378 651.664 160.534C651.664 159.059 650.927 158.137 648.529 156.846C646.317 155.647 643.827 154.448 641.43 153.065C637.741 151.037 634.975 147.348 634.975 142.462C634.975 133.794 642.352 129.092 650.65 129.092Z" fill="white"/>
<path opacity="0.55" d="M234.614 260.652V236.114C234.614 233.618 234.614 231.487 234.354 229.043C235.757 228.835 239.032 228.524 242.152 228.524C249.482 228.524 254.837 231.383 254.837 238.661C254.837 245.471 249.222 248.798 244.959 248.798C243.711 248.798 242.724 248.643 242.1 248.227C241.476 247.915 240.8 246.615 240.852 245.471C241.528 245.679 242.672 245.783 243.451 245.783C245.843 245.783 249.794 244.536 249.794 238.817C249.794 232.89 245.323 231.747 242.152 231.747C241.112 231.747 240.28 231.747 239.344 231.903V254.933C239.344 258.572 239.448 260.132 239.5 261.171C238.721 261.431 236.641 261.587 235.497 261.587C234.977 261.587 234.614 261.431 234.614 260.652ZM269.672 237.933C276.899 237.933 280.954 242.924 280.954 249.682C280.954 256.649 276.483 261.899 269.464 261.899C261.874 261.899 258.027 256.337 258.027 250.15C258.027 243.288 262.81 237.933 269.672 237.933ZM269.36 241C265.929 241 262.862 244.068 262.862 249.578C262.862 255.765 266.033 258.832 269.88 258.832C272.948 258.832 276.119 256.233 276.119 250.046C276.119 245.627 274.143 241 269.36 241ZM288.118 237.933C288.638 237.933 288.95 238.245 289.158 238.921C290.717 243.704 292.277 248.954 294.252 255.921C296.54 248.954 297.736 245.627 299.399 240.585C299.295 240.169 299.191 239.649 299.087 239.337C299.763 238.973 301.583 238.505 302.414 238.505C303.09 238.505 303.246 239.129 303.714 240.689C304.702 244.068 306.313 249.006 308.393 255.661C311.616 246.251 313.436 240.533 314.112 237.933C315.203 237.933 316.399 238.193 317.283 238.557C317.907 238.973 317.855 239.701 317.231 241.468C314.839 247.915 313.176 252.801 310.524 259.768C310.161 260.808 309.901 261.223 309.069 261.483C308.237 261.691 307.145 261.847 306.261 261.899C304.286 255.349 303.038 251.71 301.063 245.471C300.075 248.591 297.112 256.856 296.072 259.976C295.76 260.808 295.448 261.223 294.824 261.431C293.941 261.639 292.849 261.847 291.965 261.899C290.873 258.676 289.054 252.75 286.974 246.823C285.519 242.716 284.687 240.533 284.063 239.129C284.895 238.609 287.13 237.933 288.118 237.933ZM339.357 256.856L339.461 257.012C339.461 258.676 338.266 260.288 337.33 260.756C336.446 261.223 334.315 261.899 332.235 261.899C324.905 261.899 320.954 257.584 320.954 250.254C320.954 243.808 324.905 237.933 331.819 237.933C337.85 237.933 340.449 242.404 340.553 246.563C340.553 247.135 340.501 247.811 340.397 248.227C340.241 249.058 337.694 249.786 335.874 250.098C334.471 250.306 329.272 250.41 325.581 250.254C325.633 255.349 328.856 258.26 333.379 258.26C335.822 258.26 338.37 257.376 339.357 256.856ZM331.247 240.844C328.648 240.844 326.101 243.184 325.737 247.343C329.376 247.447 334.003 247.395 334.99 247.343C335.614 247.291 336.03 246.875 336.03 246.251C336.082 243.184 334.471 240.844 331.247 240.844ZM344.899 240.065V239.857C345.367 239.077 347.03 237.933 347.914 237.933C349.37 237.933 350.357 239.753 350.357 243.08C352.021 239.701 354.257 237.933 356.7 237.933C357.948 237.933 359.039 238.609 359.351 239.025C359.351 239.805 359.039 241.208 358.415 242.092C358.052 242.56 357.532 242.768 356.908 242.56C356.284 242.352 355.712 242.3 355.192 242.3C354.049 242.3 352.333 243.392 351.241 245.939C350.877 246.823 350.669 247.551 350.669 248.695V260.132C350.669 260.911 350.513 261.275 349.734 261.379C348.382 261.535 347.134 261.587 345.939 261.587C346.043 259.664 346.095 256.597 346.095 252.022V243.34C346.095 241.936 345.835 240.74 344.899 240.065ZM379.743 256.856L379.847 257.012C379.847 258.676 378.651 260.288 377.715 260.756C376.831 261.223 374.7 261.899 372.621 261.899C365.29 261.899 361.339 257.584 361.339 250.254C361.339 243.808 365.29 237.933 372.205 237.933C378.235 237.933 380.835 242.404 380.938 246.563C380.938 247.135 380.886 247.811 380.783 248.227C380.627 249.058 378.079 249.786 376.26 250.098C374.856 250.306 369.657 250.41 365.966 250.254C366.018 255.349 369.241 258.26 373.764 258.26C376.208 258.26 378.755 257.376 379.743 256.856ZM371.633 240.844C369.033 240.844 366.486 243.184 366.122 247.343C369.761 247.447 374.388 247.395 375.376 247.343C376 247.291 376.416 246.875 376.416 246.251C376.468 243.184 374.856 240.844 371.633 240.844ZM402.214 238.661V231.799C402.214 229.043 402.11 227.796 402.006 226.756C402.942 226.392 405.177 226.028 405.957 226.028C406.529 226.028 406.737 226.288 406.737 229.407V255.869C406.737 258.26 407.568 258.78 409.128 259.04V259.196C408.92 260.444 407.776 261.899 406.581 261.899C404.137 261.899 403.098 260.548 402.734 258.988C400.602 260.652 397.327 261.899 395.351 261.899C389.789 261.899 385.214 257.844 385.214 250.566C385.214 243.132 390.829 237.933 398.211 237.933C400.082 237.933 401.59 238.401 402.214 238.661ZM402.214 256.545V241.832C401.486 241.468 399.978 241.052 398.107 241.052C394.104 241.052 390.049 243.912 390.049 249.994C390.049 255.037 393.168 258.156 397.327 258.156C398.939 258.156 400.914 257.48 402.214 256.545ZM432.146 229.407V240.221C434.122 239.129 436.877 237.933 439.112 237.933C443.947 237.933 448.886 241.416 448.886 248.902C448.886 257.168 442.544 261.899 434.953 261.899C432.458 261.899 429.859 261.327 428.507 260.6C427.883 260.288 427.623 259.976 427.623 259.04V232.475C427.623 229.355 427.519 227.796 427.415 226.756C428.507 226.392 430.587 226.028 431.366 226.028C431.99 226.028 432.146 226.288 432.146 229.407ZM432.146 242.976V258.312C433.134 258.624 434.382 258.78 435.473 258.78C439.788 258.78 444.051 255.921 444.051 249.526C444.051 244.588 441.296 241.624 436.929 241.624C435.629 241.624 433.394 242.3 432.146 242.976ZM453.654 270.945V270.737C455.422 268.554 458.385 264.291 460.568 259.976C460.309 259.612 459.789 258.676 459.425 257.74C458.697 255.713 454.33 244.068 452.095 239.129C453.03 238.557 454.954 237.933 455.838 237.933C456.565 237.933 456.773 238.297 456.981 238.921C458.541 242.716 461.66 251.762 462.96 255.297C464.987 250.566 467.743 242.196 468.73 237.933C469.458 237.933 470.862 238.141 471.59 238.401C472.473 238.765 472.577 239.181 472.266 240.325C470.654 245.887 468.678 251.762 465.871 257.844C462.804 264.603 457.865 272.297 456.877 272.297C455.63 272.297 454.122 271.569 453.654 270.945Z" fill="white"/>
<path d="M615.061 243.129C614.398 241.766 613.459 240.736 612.262 239.999C611.065 239.263 609.685 238.895 608.138 238.895C606.591 238.895 605.21 239.263 604.014 239.999C602.817 240.736 601.878 241.785 601.215 243.129C600.552 244.491 600.221 246.074 600.221 247.879V251.947C600.221 253.751 600.552 255.334 601.215 256.697C601.878 258.059 602.817 259.09 604.014 259.826C605.21 260.563 606.591 260.913 608.138 260.913C609.685 260.913 611.065 260.544 612.262 259.826C613.459 259.09 614.195 258.262 614.858 256.899C615.171 256.255 615.448 255.445 615.595 254.616L611.802 253.751C611.636 254.561 611.36 255.334 610.937 255.868C610.255 256.752 609.261 257.139 608.138 257.139C607.015 257.139 606.021 256.734 605.339 255.868C604.658 254.985 604.327 253.733 604.327 252.186V250.658H616.074V247.86C616.055 246.056 615.724 244.491 615.061 243.129ZM608.138 242.669C609.261 242.669 610.255 243.055 610.937 243.92C611.544 244.694 611.876 245.872 611.949 247.216H604.327C604.382 245.872 604.713 244.694 605.339 243.92C606.002 243.055 606.996 242.669 608.138 242.669Z" fill="white"/>
<path d="M585.804 260.434V246.553C585.804 245.393 586.136 244.454 586.78 243.773C587.443 243.092 588.253 242.742 589.266 242.742C590.26 242.742 591.089 243.092 591.751 243.773C592.414 244.454 592.727 245.375 592.727 246.553V260.434H596.833V245.688C596.833 243.552 596.281 241.895 595.176 240.698C594.071 239.502 592.562 238.913 590.647 238.913C589.597 238.913 588.658 239.115 587.774 239.539C586.909 239.962 586.209 240.514 585.823 241.103V230.555H581.717V260.434H585.804Z" fill="white"/>
<path d="M567.024 252.15C567.024 253.696 567.374 254.948 568.055 255.813C568.754 256.678 569.749 257.065 570.872 257.065C572.897 257.065 574.168 255.758 574.646 253.162L578.458 254.046C578.145 256.218 577.353 257.912 576.082 259.108C574.812 260.305 573.081 260.913 570.872 260.913C568.478 260.913 566.545 260.103 565.09 258.483C563.636 256.862 562.899 254.653 562.899 251.892V247.915C562.899 245.154 563.617 242.945 565.09 241.325C566.545 239.705 568.478 238.895 570.872 238.895C573.081 238.895 574.812 239.502 576.082 240.699C577.353 241.895 578.145 243.589 578.458 245.761L574.646 246.645C574.168 244.049 572.916 242.742 570.872 242.742C569.749 242.742 568.736 243.129 568.055 243.994C567.355 244.859 567.024 246.093 567.024 247.658V252.15Z" fill="white"/>
<path d="M551.834 257.064C550.711 257.064 549.716 256.659 549.035 255.794C548.354 254.91 548.022 253.658 548.022 252.112V247.657C548.022 246.11 548.354 244.858 549.035 243.993C549.716 243.128 550.711 242.741 551.834 242.741C552.957 242.741 553.951 243.128 554.632 243.993C555.314 244.858 555.645 246.092 555.645 247.657V252.112C555.645 253.658 555.314 254.91 554.632 255.794C553.951 256.678 552.957 257.064 551.834 257.064ZM551.834 260.93C553.38 260.93 554.761 260.562 555.958 259.844C557.155 259.108 558.094 258.058 558.757 256.714C559.419 255.352 559.751 253.769 559.751 251.965V247.896C559.751 246.092 559.419 244.509 558.757 243.146C558.094 241.784 557.155 240.753 555.958 240.017C554.761 239.28 553.38 238.912 551.834 238.912C550.287 238.912 548.906 239.28 547.709 240.017C546.513 240.753 545.574 241.802 544.911 243.146C544.248 244.509 543.917 246.092 543.917 247.896V251.965C543.917 253.769 544.248 255.352 544.911 256.714C545.574 258.077 546.513 259.108 547.709 259.844C548.906 260.562 550.287 260.93 551.834 260.93Z" fill="white"/>
<path d="M529.85 243.165V234.457H533.992C535.097 234.457 535.963 234.807 536.57 235.525C537.178 236.243 537.491 237.329 537.491 238.82C537.491 240.293 537.178 241.398 536.57 242.116C535.963 242.834 535.097 243.184 533.992 243.184L529.85 243.165ZM529.85 260.433V247.105H533.366C534.379 247.105 535.042 247.344 535.484 247.804C535.926 248.265 536.165 249.001 536.294 250.05L537.454 260.433H541.578L540.345 249.664C540.197 248.375 540.032 247.528 539.516 246.773C539.037 246.092 538.356 245.522 537.564 245.264C538.816 244.675 539.811 243.828 540.529 242.76C541.247 241.692 541.615 240.22 541.615 238.342C541.615 235.93 540.934 234.015 539.59 232.616C538.227 231.217 536.368 230.518 534.011 230.518H525.762V260.433H529.85Z" fill="white"/>
<path d="M641.998 247.711L608.727 285.985H527.972L494.701 247.711L527.972 209.438H608.709L641.998 247.711ZM606.941 282.101L636.842 247.711L606.941 213.322H529.739L499.857 247.711L529.739 282.101H606.941V282.101Z" fill="white"/>
</g>
<defs>
<linearGradient id="paint0_linear_449_6298" x1="63.6043" y1="-112.625" x2="-119.761" y2="113.334" gradientUnits="userSpaceOnUse">
<stop offset="0.5" stop-color="#26BECF"/>
<stop offset="0.744792" stop-color="#5EBB75"/>
<stop offset="0.901042" stop-color="#8EB927"/>
</linearGradient>
<clipPath id="clip0_449_6298">
<rect width="666" height="288" fill="white"/>
</clipPath>
</defs>
</svg>
